<svg width="44" height="44" viewBox="0 0 44 44" fill="none" xmlns="http://www.w3.org/2000/svg">
<path d="M37.9097 41.4462C38.3786 41.9151 39.0144 42.1785 39.6775 42.1785C40.3405 42.1785 40.9764 41.9151 41.4453 41.4462C41.9141 40.9774 42.1775 40.3415 42.1775 39.6785C42.1775 39.0154 41.9141 38.3795 41.4453 37.9107L37.9097 41.4462ZM4.32215 0.787601C3.85331 0.31876 3.21743 0.055368 2.55439 0.055367C1.89134 0.0553675 1.25546 0.318761 0.786618 0.787601C0.317776 1.25644 0.0543854 1.89233 0.054385 2.55537C0.0543845 3.21841 0.317777 3.85429 0.786618 4.32313L4.32215 0.787601ZM41.4453 41.4462L41.4453 43.9459C42.1082 43.9458 42.7439 43.6824 43.2126 43.2136C43.6814 42.7449 43.9448 42.1092 43.9449 41.4462H41.4453ZM13.161 38.9466C12.5056 38.958 11.8808 39.2264 11.4214 39.6939C10.9619 40.1614 10.7044 40.7907 10.7044 41.4462C10.7044 42.1018 10.9619 42.731 11.4214 43.1986C11.8808 43.6661 12.5056 43.9345 13.161 43.9459L13.161 38.9466ZM43.9449 13.162C43.9335 12.5066 43.6651 11.8818 43.1976 11.4224C42.7301 10.9629 42.1008 10.7054 41.4453 10.7054C40.7897 10.7054 40.1604 10.9629 39.6929 11.4224C39.2254 11.8818 38.957 12.5066 38.9456 13.162H43.9449ZM41.4453 37.9107L4.32215 0.787601L0.786618 4.32313L37.9097 41.4462L41.4453 37.9107ZM41.4453 38.9466L13.161 38.9466L13.161 43.9459L41.4453 43.9459L41.4453 38.9466ZM43.9449 41.4462L43.9449 13.162H38.9456L38.9456 41.4462L43.9449 41.4462Z" fill="#00D749"/>
</svg>
